<?xml version="1.0" encoding="UTF-8"?>
<svg version="1.1" xmlns="http://www.w3.org/2000/svg" width="1500" height="1500">
<path d="M0 0 C495 0 990 0 1500 0 C1500 495 1500 990 1500 1500 C1005 1500 510 1500 0 1500 C0 1005 0 510 0 0 Z " fill="#151F2B" transform="translate(0,0)"/>
<path d="M0 0 C1.18511215 -0.00322445 2.37022429 -0.00644889 3.59124893 -0.00977105 C4.90989427 -0.00822245 6.22853961 -0.00667385 7.5871439 -0.00507832 C8.98901432 -0.00694446 10.39088422 -0.00924436 11.79275328 -0.01194364 C15.6631737 -0.01809244 19.53357263 -0.01792445 23.40399683 -0.01674926 C27.57106735 -0.01654603 31.73813082 -0.02205657 35.9051981 -0.02680683 C44.07594909 -0.03513074 52.24669286 -0.03786245 60.41744774 -0.03841921 C67.05547131 -0.03889354 73.69349249 -0.04094411 80.33151531 -0.04411983 C99.1302367 -0.05293108 117.92895238 -0.05753847 136.72767585 -0.05678936 C137.74216349 -0.0567494 138.75665114 -0.05670945 139.80188084 -0.05666828 C140.81759974 -0.0566274 141.83331864 -0.05658652 142.8798169 -0.0565444 C159.34865489 -0.05613777 175.81747004 -0.06571029 192.28630143 -0.07980665 C209.17550971 -0.09414935 226.06470684 -0.101078 242.95392138 -0.10021287 C252.44433211 -0.09988018 261.9347189 -0.10265887 271.42512417 -0.11339092 C279.50438417 -0.12246828 287.58360937 -0.12469406 295.66287225 -0.1178815 C299.78861921 -0.11460225 303.91429929 -0.1146098 308.04004002 -0.12323475 C311.81192468 -0.13103918 315.58368876 -0.12973113 319.35557026 -0.12095062 C321.37714145 -0.11866476 323.3987162 -0.12629153 325.42027324 -0.13419026 C327.20185309 -0.12729207 327.20185309 -0.12729207 329.01942444 -0.12025452 C330.56673112 -0.12058057 330.56673112 -0.12058057 332.14529651 -0.12091321 C334.57263279 0.12863445 334.57263279 0.12863445 336.57263279 2.12863445 C336.82152176 5.01127243 336.82152176 5.01127243 336.81987095 8.77830791 C336.82228536 9.46943155 336.82469978 10.16055518 336.82718736 10.87262195 C336.83284493 13.19967201 336.82414594 15.52645004 336.81555271 17.85348797 C336.81662508 19.51716467 336.81856308 21.18084101 336.82130527 22.8445158 C336.8261637 27.37121634 336.81848583 31.89781871 336.80835223 36.42450738 C336.79958924 41.15261844 336.80132883 45.88072627 336.80171299 50.6088438 C336.80077563 58.54896984 336.79208158 66.48905772 336.77844334 74.42917156 C336.76271166 83.62231773 336.75744538 92.81542209 336.75817889 102.00858074 C336.75878826 110.83668479 336.75369149 119.66477516 336.74538708 128.4928751 C336.74184739 132.2572258 336.74002285 136.02157167 336.73949337 139.78592396 C336.73849221 144.21405485 336.73241427 148.64215036 336.72232723 153.07026958 C336.71939509 154.70014447 336.7181783 156.33002343 336.71875477 157.95990086 C336.719242 160.17528697 336.71362415 162.39057247 336.70634556 164.60594463 C336.70466971 165.84868932 336.70299387 167.091434 336.70126724 168.37183762 C336.57263279 171.12863445 336.57263279 171.12863445 335.57263279 172.12863445 C333.75955732 172.22703783 331.94259876 172.25419076 330.1268549 172.25447559 C328.93764266 172.25708334 327.74843041 172.25969109 326.52318144 172.26237786 C325.18659704 172.26021534 323.85001279 172.25795866 322.51342869 172.2556181 C321.10672099 172.25676895 319.70001359 172.25835624 318.29330683 172.26034534 C314.40955204 172.26454354 310.52582163 172.26244577 306.64206672 172.25935912 C302.46070196 172.25710722 298.27934155 172.26058358 294.09797764 172.26333904 C285.89948636 172.267798 277.70100421 172.26681972 269.50251257 172.2639264 C262.84255086 172.26167286 256.18259172 172.26135963 249.52262974 172.26245022 C248.57665577 172.26260345 247.6306818 172.26275668 246.65604195 172.26291456 C244.73463221 172.26323427 242.81322248 172.26355848 240.89181274 172.26388715 C222.85234439 172.26674231 204.81288112 172.26345436 186.7734136 172.25808679 C171.27695938 172.25361871 155.78051265 172.25439464 140.28405857 172.25900555 C122.31146735 172.26435068 104.33888057 172.26646762 86.36628866 172.26339328 C84.45173772 172.26307472 82.53718678 172.26276035 80.62263584 172.26245022 C79.68050994 172.26229594 78.73838404 172.26214167 77.76770887 172.26198272 C71.11167392 172.26111738 64.45564179 172.2625808 57.79960728 172.26492977 C49.6939753 172.26772729 41.58835302 172.26699053 33.48272216 172.26164903 C29.34294118 172.25901136 25.20317638 172.25800805 21.0633955 172.26129818 C17.27987368 172.26425981 13.49638317 172.26267058 9.71286422 172.25732063 C8.33805396 172.25619587 6.9632411 172.25678891 5.58843249 172.25919642 C3.73176032 172.26220041 1.87508082 172.25854697 0.01841068 172.25447559 C-1.01654459 172.25431324 -2.05149985 172.25415089 -3.1178174 172.25398362 C-5.42736721 172.12863445 -5.42736721 172.12863445 -6.42736721 171.12863445 C-6.52654933 168.94134521 -6.55369119 166.75078832 -6.55435085 164.56125164 C-6.55591084 163.86689888 -6.55747083 163.17254612 -6.5590781 162.45715237 C-6.56309032 160.11325028 -6.55989761 157.76941211 -6.55676174 155.42550945 C-6.55811568 153.75212853 -6.55989558 152.07874791 -6.5620718 150.40536785 C-6.56664697 145.84764665 -6.56485623 141.28994798 -6.56169271 136.73222637 C-6.55916954 131.97341124 -6.56150653 127.2145981 -6.56307888 122.45578289 C-6.5649007 114.46261529 -6.56249394 106.46945691 -6.5577383 98.4762907 C-6.55229566 89.2212516 -6.55405831 79.96623452 -6.55956471 70.71119595 C-6.56409548 62.7800137 -6.56474656 54.84883811 -6.56212604 46.91765499 C-6.56056307 42.17413503 -6.56037005 37.43062544 -6.56366253 32.68710613 C-6.56654073 28.22862493 -6.5645665 23.77017225 -6.55876827 19.31169415 C-6.5574404 17.67053048 -6.55783525 16.02936444 -6.56003094 14.38820171 C-6.56274138 12.15744059 -6.55936265 9.92677238 -6.55435085 7.69601727 C-6.55397383 6.44459942 -6.5535968 5.19318157 -6.55320835 3.90384197 C-6.3345219 -0.91890735 -4.32118106 0.00295135 0 0 Z " fill="#18212D" transform="translate(584.4273672103882,1307.8713655471802)"/>
<path d="M0 0 C18.81 0 37.62 0 57 0 C57.25379413 55.80044668 57.49575678 111.60088313 57.63514709 167.40174866 C57.63721795 168.22863264 57.63928881 169.05551663 57.64142242 169.9074577 C57.68632409 187.88120581 57.72787566 205.8549602 57.76597994 223.82872396 C57.78468873 232.64403677 57.80413721 241.45934787 57.82397461 250.2746582 C57.825936 251.15185157 57.82789738 252.02904494 57.8299182 252.93281993 C57.89375078 281.32588195 58.00635398 309.71849392 58.14445831 338.11128369 C58.28621089 367.30738872 58.37834241 396.50324506 58.40872485 425.69968838 C58.41304668 429.83074852 58.41793122 433.96180781 58.42315865 438.0928669 C58.42416999 438.90585696 58.42518134 439.71884701 58.42622333 440.55647313 C58.44389632 453.60303593 58.51332194 466.64882597 58.60248051 479.69507459 C58.69116583 492.83569784 58.72442694 505.97556103 58.70252066 519.11647259 C58.69216944 526.22706024 58.70564962 533.3355741 58.78808212 540.44574547 C59.38546544 594.01282769 59.38546544 594.01282769 43.93970883 611.63837063 C40.42363358 615.91925364 37.81092965 620.76864211 35.0625 625.5625 C34.07779827 627.21177785 33.09017883 628.85932307 32.09765625 630.50390625 C31.69039307 631.18267822 31.28312988 631.8614502 30.86352539 632.56079102 C30.43608032 633.27319946 30.43608032 633.27319946 30 634 C28.20751953 633.82641602 28.20751953 633.82641602 26 633 C24.32763672 630.75366211 24.32763672 630.75366211 22.6796875 627.77734375 C22.06625488 626.68808594 21.45282227 625.59882812 20.82080078 624.4765625 C20.17218325 623.29688449 19.52358331 622.11719682 18.875 620.9375 C17.54205336 618.55803579 16.20033699 616.18354757 14.859375 613.80859375 C14.52950592 613.22141571 14.19963684 612.63423767 13.85977173 612.02926636 C10.35975426 605.81639572 6.58756758 599.79361626 2.7578125 593.78125 C0.65475908 590.45375214 -0.12501908 588.83988022 -0.1241985 584.97491777 C-0.12644579 584.12614045 -0.12869308 583.27736313 -0.13100848 582.40286529 C-0.12838146 581.46315985 -0.12575445 580.52345442 -0.12304783 579.55527306 C-0.12420167 578.55851327 -0.12535552 577.56175348 -0.12654433 576.53478885 C-0.12921553 573.15610066 -0.12468469 569.77745902 -0.12025452 566.39877319 C-0.12069012 563.96753955 -0.12156481 561.53630596 -0.12284368 559.10507262 C-0.12462036 553.79920005 -0.12326609 548.49334173 -0.11920547 543.18747139 C-0.11318416 535.29776912 -0.11286839 527.40807395 -0.11374746 519.51836981 C-0.11506314 506.24829151 -0.11171324 492.97821818 -0.10573006 479.70814133 C-0.09981871 466.56377513 -0.09596526 453.419411 -0.09487724 440.27504349 C-0.0948085 439.45862271 -0.09473976 438.64220194 -0.09466894 437.80104114 C-0.09433062 433.65507261 -0.09402923 429.50910407 -0.09374207 425.36313553 C-0.09164009 395.9758129 -0.08489836 366.58849298 -0.07543945 337.20117188 C-0.06625924 308.64681004 -0.05917356 280.09244895 -0.05493164 251.53808594 C-0.05480011 250.65835006 -0.05466859 249.77861418 -0.05453308 248.87221964 C-0.05321459 240.03777633 -0.05193877 231.20333301 -0.05069422 222.36888969 C-0.04815781 204.37114004 -0.04533656 186.37339044 -0.04234314 168.37564087 C-0.04220585 167.54808247 -0.04206856 166.72052408 -0.04192711 165.86788815 C-0.03272209 110.57859091 -0.01664851 55.28929543 0 0 Z " fill="#2678A7" transform="translate(1412,0)"/>
<path d="M0 0 C18.81 0 37.62 0 57 0 C57.38523644 43.85621695 57.68915998 87.71202374 57.8681106 131.56960084 C57.88936967 136.76092162 57.91137344 141.95223899 57.93383789 147.14355469 C57.93829717 148.17694394 57.94275645 149.21033318 57.94735085 150.27503726 C58.02109166 166.95322725 58.15499745 183.63040933 58.31159753 200.30800369 C58.47122635 217.45262407 58.56513543 234.59672086 58.59950441 251.74205375 C58.62269825 262.30112935 58.69562349 272.85735529 58.83457994 283.41555235 C58.92525394 290.68035931 58.95142343 297.94371861 58.92952342 305.20904878 C58.91875433 309.38651324 58.93385086 313.559044 59.02649307 317.73560333 C59.50421093 340.38996563 55.45991785 354.79355312 42.00857532 373.20118666 C39.25623941 377.03637989 36.86289956 381.04289705 34.5 385.125 C33.49453125 386.79949219 33.49453125 386.79949219 32.46875 388.5078125 C31.60123504 389.97981927 30.76411859 391.47176281 30 393 C29.01 393 28.02 393 27 393 C25.73242188 391.44970703 25.73242188 391.44970703 24.46875 389.2578125 C23.99300537 388.44707275 23.51726074 387.63633301 23.02709961 386.80102539 C22.52315674 385.91793701 22.01921387 385.03484863 21.5 384.125 C20.42920918 382.29248715 19.35757559 380.46046654 18.28515625 378.62890625 C17.74133301 377.69320801 17.19750977 376.75750977 16.63720703 375.79345703 C14.12900209 371.51387442 11.53597614 367.28767163 8.9375 363.0625 C7.65033223 360.96351808 6.36370942 358.86424798 5.08154297 356.76220703 C4.15249569 355.24846814 3.20497187 353.74609657 2.25390625 352.24609375 C0.01033359 348.22723306 -0.12469806 344.6654347 -0.12304783 340.10419846 C-0.12503888 338.89097939 -0.12702993 337.67776033 -0.12908131 336.42777705 C-0.12622828 335.07967914 -0.12328269 333.73158142 -0.12025452 332.38348389 C-0.12069048 330.95285055 -0.12156586 329.52221728 -0.12284368 328.09158444 C-0.12508363 324.15566713 -0.12107416 320.21977693 -0.11606562 316.28386307 C-0.11175416 312.04122162 -0.11320804 307.79858174 -0.1139679 303.55593872 C-0.11449269 296.20371894 -0.11135054 288.85150802 -0.10573006 281.49929047 C-0.09760902 270.86916886 -0.09499922 260.23905154 -0.09374207 249.60892716 C-0.0915525 232.36298026 -0.08489498 215.11703808 -0.07543945 197.87109375 C-0.06626288 181.1165367 -0.05918324 164.36198093 -0.05493164 147.60742188 C-0.05466892 146.5749723 -0.05440619 145.54252272 -0.05413551 144.4787868 C-0.05283049 139.29938069 -0.05156678 134.11997457 -0.05032361 128.94056845 C-0.03995396 85.96037552 -0.02206334 42.98018838 0 0 Z " fill="#2678A8" transform="translate(1328,0)"/>
<path d="M0 0 C1.18511215 -0.00322445 2.37022429 -0.00644889 3.59124893 -0.00977105 C4.90989427 -0.00822245 6.22853961 -0.00667385 7.5871439 -0.00507832 C8.98901432 -0.00694446 10.39088422 -0.00924436 11.79275328 -0.01194364 C15.6631737 -0.01809244 19.53357263 -0.01792445 23.40399683 -0.01674926 C27.57106735 -0.01654603 31.73813082 -0.02205657 35.9051981 -0.02680683 C44.07594909 -0.03513074 52.24669286 -0.03786245 60.41744774 -0.03841921 C67.05547131 -0.03889354 73.69349249 -0.04094411 80.33151531 -0.04411983 C99.1302367 -0.05293108 117.92895238 -0.05753847 136.72767585 -0.05678936 C137.74216349 -0.0567494 138.75665114 -0.05670945 139.80188084 -0.05666828 C140.81759974 -0.0566274 141.83331864 -0.05658652 142.8798169 -0.0565444 C159.34865489 -0.05613777 175.81747004 -0.06571029 192.28630143 -0.07980665 C209.17550971 -0.09414935 226.06470684 -0.101078 242.95392138 -0.10021287 C252.44433211 -0.09988018 261.9347189 -0.10265887 271.42512417 -0.11339092 C279.50438417 -0.12246828 287.58360937 -0.12469406 295.66287225 -0.1178815 C299.78861921 -0.11460225 303.91429929 -0.1146098 308.04004002 -0.12323475 C311.81192468 -0.13103918 315.58368876 -0.12973113 319.35557026 -0.12095062 C321.37714145 -0.11866476 323.3987162 -0.12629153 325.42027324 -0.13419026 C327.20185309 -0.12729207 327.20185309 -0.12729207 329.01942444 -0.12025452 C330.56673112 -0.12058057 330.56673112 -0.12058057 332.14529651 -0.12091321 C334.57263279 0.12863445 334.57263279 0.12863445 336.57263279 2.12863445 C336.82152176 5.01127243 336.82152176 5.01127243 336.81987095 8.77830791 C336.82228536 9.46943155 336.82469978 10.16055518 336.82718736 10.87262195 C336.83284493 13.19967201 336.82414594 15.52645004 336.81555271 17.85348797 C336.81662508 19.51716467 336.81856308 21.18084101 336.82130527 22.8445158 C336.8261637 27.37121634 336.81848583 31.89781871 336.80835223 36.42450738 C336.79958924 41.15261844 336.80132883 45.88072627 336.80171299 50.6088438 C336.80077563 58.54896984 336.79208158 66.48905772 336.77844334 74.42917156 C336.76271166 83.62231773 336.75744538 92.81542209 336.75817889 102.00858074 C336.75878826 110.83668479 336.75369149 119.66477516 336.74538708 128.4928751 C336.74184739 132.2572258 336.74002285 136.02157167 336.73949337 139.78592396 C336.73849221 144.21405485 336.73241427 148.64215036 336.72232723 153.07026958 C336.71939509 154.70014447 336.7181783 156.33002343 336.71875477 157.95990086 C336.719242 160.17528697 336.71362415 162.39057247 336.70634556 164.60594463 C336.70466971 165.84868932 336.70299387 167.091434 336.70126724 168.37183762 C336.57263279 171.12863445 336.57263279 171.12863445 335.57263279 172.12863445 C333.75955732 172.22703783 331.94259876 172.25419076 330.1268549 172.25447559 C328.93764266 172.25708334 327.74843041 172.25969109 326.52318144 172.26237786 C325.18659704 172.26021534 323.85001279 172.25795866 322.51342869 172.2556181 C321.10672099 172.25676895 319.70001359 172.25835624 318.29330683 172.26034534 C314.40955204 172.26454354 310.52582163 172.26244577 306.64206672 172.25935912 C302.46070196 172.25710722 298.27934155 172.26058358 294.09797764 172.26333904 C285.89948636 172.267798 277.70100421 172.26681972 269.50251257 172.2639264 C262.84255086 172.26167286 256.18259172 172.26135963 249.52262974 172.26245022 C248.57665577 172.26260345 247.6306818 172.26275668 246.65604195 172.26291456 C244.73463221 172.26323427 242.81322248 172.26355848 240.89181274 172.26388715 C222.85234439 172.26674231 204.81288112 172.26345436 186.7734136 172.25808679 C171.27695938 172.25361871 155.78051265 172.25439464 140.28405857 172.25900555 C122.31146735 172.26435068 104.33888057 172.26646762 86.36628866 172.26339328 C84.45173772 172.26307472 82.53718678 172.26276035 80.62263584 172.26245022 C79.68050994 172.26229594 78.73838404 172.26214167 77.76770887 172.26198272 C71.11167392 172.26111738 64.45564179 172.2625808 57.79960728 172.26492977 C49.6939753 172.26772729 41.58835302 172.26699053 33.48272216 172.26164903 C29.34294118 172.25901136 25.20317638 172.25800805 21.0633955 172.26129818 C17.27987368 172.26425981 13.49638317 172.26267058 9.71286422 172.25732063 C8.33805396 172.25619587 6.9632411 172.25678891 5.58843249 172.25919642 C3.73176032 172.26220041 1.87508082 172.25854697 0.01841068 172.25447559 C-1.01654459 172.25431324 -2.05149985 172.25415089 -3.1178174 172.25398362 C-5.42736721 172.12863445 -5.42736721 172.12863445 -6.42736721 171.12863445 C-6.52654933 168.94134521 -6.55369119 166.75078832 -6.55435085 164.56125164 C-6.55591084 163.86689888 -6.55747083 163.17254612 -6.5590781 162.45715237 C-6.56309032 160.11325028 -6.55989761 157.76941211 -6.55676174 155.42550945 C-6.55811568 153.75212853 -6.55989558 152.07874791 -6.5620718 150.40536785 C-6.56664697 145.84764665 -6.56485623 141.28994798 -6.56169271 136.73222637 C-6.55916954 131.97341124 -6.56150653 127.2145981 -6.56307888 122.45578289 C-6.5649007 114.46261529 -6.56249394 106.46945691 -6.5577383 98.4762907 C-6.55229566 89.2212516 -6.55405831 79.96623452 -6.55956471 70.71119595 C-6.56409548 62.7800137 -6.56474656 54.84883811 -6.56212604 46.91765499 C-6.56056307 42.17413503 -6.56037005 37.43062544 -6.56366253 32.68710613 C-6.56654073 28.22862493 -6.5645665 23.77017225 -6.55876827 19.31169415 C-6.5574404 17.67053048 -6.55783525 16.02936444 -6.56003094 14.38820171 C-6.56274138 12.15744059 -6.55936265 9.92677238 -6.55435085 7.69601727 C-6.55397383 6.44459942 -6.5535968 5.19318157 -6.55320835 3.90384197 C-6.3345219 -0.91890735 -4.32118106 0.00295135 0 0 Z M-0.42736721 5.12863445 C-0.42736721 58.58863445 -0.42736721 112.04863445 -0.42736721 167.12863445 C0.6009513 168.37920672 0.6009513 168.37920672 2.80638891 168.25283295 C3.8054331 168.25245323 4.80447729 168.25207351 5.83379555 168.25168228 C6.98182374 168.25367333 8.12985193 168.25566438 9.31266886 168.25771576 C10.58987801 168.25480292 11.86708716 168.25189008 13.18299961 168.24888897 C14.54092219 168.24932455 15.89884469 168.25019922 17.25676674 168.25147814 C21.0056358 168.25372564 24.75447657 168.24969834 28.50334203 168.24470007 C32.53949033 168.2403994 36.5756369 168.24184172 40.61178684 168.24260235 C47.61046893 168.24312783 54.60914172 168.23997853 61.60782146 168.23436451 C71.72685657 168.22625274 81.84588716 168.22363462 91.96492516 168.22237652 C108.38063169 168.22018549 124.79633325 168.21352402 141.21203709 168.20407391 C157.16255767 168.19490111 173.1130769 168.18783109 189.06359959 168.18356609 C190.55233533 168.1831641 190.55233533 168.1831641 192.07114655 168.18275398 C199.83256226 168.18067467 207.59397801 168.17871771 215.35539377 168.17679942 C253.42781132 168.16735817 291.50021648 168.14724166 329.57263279 168.12863445 C329.57263279 114.33863445 329.57263279 60.54863445 329.57263279 5.12863445 C220.67263279 5.12863445 111.77263279 5.12863445 -0.42736721 5.12863445 Z " fill="#CDCECF" transform="translate(584.4273672103882,1307.8713655471802)"/>
<path d="M0 0 C3.3 -0.0825 6.6 -0.165 10 -0.25 C11.02351562 -0.28641602 12.04703125 -0.32283203 13.1015625 -0.36035156 C20.04660018 -0.44367051 25.34922541 0.78497701 30.64453125 5.44824219 C34.53969678 9.90747708 34.43224467 16.60054154 34.31640625 22.21484375 C33.66683855 27.93264335 31.62139988 32.37860012 27.5625 36.4375 C17.96506799 42.28959269 13.59676895 40 0 40 C0 26.8 0 13.6 0 0 Z " fill="#EDEEEF" transform="translate(751,1343)"/>
<path d="M0 0 C22 0 22 0 28 4 C31.03835302 7.11559928 31.45535823 9.44206919 31.5 13.75 C31.35633027 19.63327535 29.98465323 23.64833924 26 28 C24.69192228 29.03281676 23.3634676 30.04149393 22 31 C22.53109375 31.79664063 23.0621875 32.59328125 23.609375 33.4140625 C25.73958333 36.609375 27.86979167 39.8046875 30 43 C30.74765625 44.08023437 31.4953125 45.16046875 32.265625 46.2734375 C34 49 34 49 34 51 C30.535 51.495 30.535 51.495 27 52 C25.72881267 49.93771746 24.45804035 47.87518109 23.1875 45.8125 C22.83107422 45.23435547 22.47464844 44.65621094 22.10742188 44.06054688 C21.06944825 42.37503007 20.03468147 40.68753975 19 39 C18.41863281 38.07574219 17.83726562 37.15148438 17.23828125 36.19921875 C16 34 16 34 16 32 C13.03 32 10.06 32 7 32 C7 38.27 7 44.54 7 51 C4.69 51 2.38 51 0 51 C0 34.17 0 17.34 0 0 Z " fill="#EDEEEF" transform="translate(621,1332)"/>
<path d="M0 0 C1.98 0 3.96 0 6 0 C7.28734407 3.93088838 8.56892842 7.86360274 9.84521484 11.7980957 C10.28015954 13.13617501 10.71667209 14.47374574 11.15478516 15.81079102 C11.78440139 17.73319069 12.40790843 19.65758784 13.03125 21.58203125 C13.40830078 22.73936768 13.78535156 23.8967041 14.17382812 25.08911133 C15 28 15 28 15 31 C15.66 31 16.32 31 17 31 C17.18175781 30.3709375 17.36351562 29.741875 17.55078125 29.09375 C17.80214844 28.2378125 18.05351563 27.381875 18.3125 26.5 C18.58191406 25.57832031 18.85132813 24.65664062 19.12890625 23.70703125 C19.86633836 21.41537003 20.73904922 19.36314062 21.75 17.1875 C23.94471349 11.67228735 22.72631274 5.74049584 22 0 C23.98 0 25.96 0 28 0 C28.29245605 0.87325928 28.58491211 1.74651855 28.88623047 2.64624023 C29.97244322 5.87794937 31.0652305 9.10727491 32.16259766 12.33520508 C32.63662038 13.73404321 33.10798655 15.13378444 33.57666016 16.53442383 C34.2499039 18.5449033 34.93256372 20.5519655 35.6171875 22.55859375 C36.02565918 23.76829834 36.43413086 24.97800293 36.85498047 26.22436523 C37.69452956 29.12071909 37.69452956 29.12071909 40 30 C40.14115234 28.7934375 40.14115234 28.7934375 40.28515625 27.5625 C41.17425241 23.13159455 42.74502589 19.17775688 44.4375 15 C46.42433557 10.03495936 48.37395321 5.0987598 50 0 C51.98 0 53.96 0 56 0 C54.31873239 6.94377193 52.10230995 13.38016797 49.265625 19.93359375 C47.57821315 24.02192185 46.22604167 28.19074467 44.89453125 32.40625 C44.09181254 34.73378373 43.16020201 36.83292664 42 39 C39.69 39 37.38 39 35 39 C32.08883742 32.74042512 29.33015139 26.49989597 27 20 C26.67386719 20.78503906 26.34773437 21.57007813 26.01171875 22.37890625 C23.70210947 27.93150673 21.38409106 33.47894701 19 39 C16.69 39 14.38 39 12 39 C10.28526381 33.92989904 8.57642653 28.85786321 6.87304688 23.78393555 C6.29263794 22.05780326 5.71061526 20.33221272 5.12695312 18.60717773 C4.28872539 16.12884623 3.45630328 13.64863015 2.625 11.16796875 C2.23127197 10.01001045 2.23127197 10.01001045 1.82958984 8.82865906 C0.8105184 5.77240588 0 3.24447245 0 0 Z " fill="#E6E7E9" transform="translate(675,1420)"/>
<path d="M0 0 C2.31 0 4.62 0 7 0 C9.47900657 5.45908895 11.81151367 10.94996884 13.97265625 16.54296875 C15.18179616 19.43479006 16.57444685 22.20946961 18 25 C18.37511719 24.11699219 18.75023437 23.23398438 19.13671875 22.32421875 C22.32933463 14.83725305 25.59077518 7.39168212 29 0 C31.31 0 33.62 0 36 0 C36.19916016 1.62808594 36.19916016 1.62808594 36.40234375 3.2890625 C36.58066254 4.73438322 36.75905169 6.17969526 36.9375 7.625 C37.06801758 8.69427734 37.06801758 8.69427734 37.20117188 9.78515625 C37.58316641 12.86940843 37.9836658 15.91379172 38.5625 18.96875 C39.1379348 22.95569114 39.10680378 26.85357964 39.0625 30.875 C39.05798828 31.65875 39.05347656 32.4425 39.04882812 33.25 C39.03714093 35.16670014 39.01920908 37.08336048 39 39 C37.35 39 35.7 39 34 39 C33.93941406 38.04738281 33.87882813 37.09476563 33.81640625 36.11328125 C33.73261719 34.85902344 33.64882813 33.60476563 33.5625 32.3125 C33.48128906 31.07113281 33.40007813 29.82976562 33.31640625 28.55078125 C33.07823514 25.13772781 33.07823514 25.13772781 32.46875 22.375 C31.95189458 19.75626587 31.90195083 17.35368759 31.9375 14.6875 C31.94652344 13.80449219 31.95554687 12.92148438 31.96484375 12.01171875 C31.97644531 11.34785156 31.98804688 10.68398437 32 10 C31.34 10 30.68 10 30 10 C29.9175 10.66 29.835 11.32 29.75 12 C28.92762656 15.28949374 27.60706533 17.88854145 26.046875 20.87890625 C25.0143893 22.97084555 24.174481 25.05958521 23.375 27.25 C22.37669222 29.97265759 21.37496117 32.46161014 20 35 C18.35 35 16.7 35 15 35 C5 13.38297872 5 13.38297872 5 10 C4.34 10 3.68 10 3 10 C2.97494385 10.70084717 2.9498877 11.40169434 2.92407227 12.1237793 C2.80773455 15.31185488 2.68517956 18.49966242 2.5625 21.6875 C2.50352539 23.34168945 2.50352539 23.34168945 2.44335938 25.02929688 C2.40146484 26.09599609 2.35957031 27.16269531 2.31640625 28.26171875 C2.27974854 29.24100342 2.24309082 30.22028809 2.20532227 31.22924805 C2.00780667 33.89465177 1.58426967 36.39469788 1 39 C-0.98 39 -2.96 39 -5 39 C-4.26912177 31.36232253 -3.40951533 23.74331653 -2.5 16.125 C-2.30470703 14.454375 -2.30470703 14.454375 -2.10546875 12.75 C-1.97785156 11.68007812 -1.85023438 10.61015625 -1.71875 9.5078125 C-1.60466797 8.54504395 -1.49058594 7.58227539 -1.37304688 6.59033203 C-1.04794958 4.33294832 -0.60376203 2.19673501 0 0 Z " fill="#E8E9EA" transform="translate(842,1344)"/>
<path d="M0 0 C7 0 7 0 8.70922852 1.23413086 C9.28821899 2.09083374 9.28821899 2.09083374 9.87890625 2.96484375 C10.32242432 3.59600098 10.76594238 4.2271582 11.22290039 4.87744141 C11.66496826 5.55726074 12.10703613 6.23708008 12.5625 6.9375 C13.03357178 7.62247559 13.50464355 8.30745117 13.98999023 9.01318359 C15.34722006 10.99580134 16.67377177 12.99658212 18 15 C18.6496875 15.93199219 19.299375 16.86398437 19.96875 17.82421875 C22.4933187 21.46875543 24.43546046 24.83270113 26 29 C26.66 29 27.32 29 28 29 C28 19.43 28 9.86 28 0 C29.65 0 31.3 0 33 0 C33 12.87 33 25.74 33 39 C26 39 26 39 24.32250977 37.70581055 C23.94924561 37.10551025 23.57598145 36.50520996 23.19140625 35.88671875 C22.5413562 34.88705078 22.5413562 34.88705078 21.87817383 33.8671875 C21.44400146 33.14789062 21.0098291 32.42859375 20.5625 31.6875 C19.62112626 30.22179823 18.6784085 28.75695883 17.734375 27.29296875 C17.27611328 26.5664209 16.81785156 25.83987305 16.34570312 25.09130859 C14.44559727 22.13842275 12.39625055 19.32636377 10.3125 16.5 C9.219375 15.015 8.12625 13.53 7 12 C6.67 20.91 6.34 29.82 6 39 C4.02 39 2.04 39 0 39 C0 26.13 0 13.26 0 0 Z " fill="#EBECED" transform="translate(704,1344)"/>
<path d="M0 0 C3.34534328 1.91162473 6.31998939 4.130965 7.66796875 7.8359375 C8.60724059 13.95777984 8.99240305 19.9049269 6.3125 25.5625 C2.87728213 29.18340532 0.62946486 30.78877307 -4.375 31.4375 C-9.03545767 30.87503097 -11.19682901 29.75916327 -15 27 C-18.12090276 21.13145859 -17.62020472 14.4516418 -17 8 C-15.84214383 4.67563975 -14.20580541 2.71492429 -11.12890625 0.890625 C-7.41318802 -0.66384061 -3.93782891 -0.76771118 0 0 Z " fill="#202935" transform="translate(815,1348)"/>
<path d="M0 0 C1.134375 0.020625 2.26875 0.04125 3.4375 0.0625 C6.67366522 7.33354355 9.32538891 14.63730391 11.62060547 22.24438477 C13.08544297 27.0590038 14.78104542 31.70591387 16.73828125 36.33984375 C17.4375 38.0625 17.4375 38.0625 17.4375 39.0625 C15.1275 39.0625 12.8175 39.0625 10.4375 39.0625 C9.7775 35.7625 9.1175 32.4625 8.4375 29.0625 C2.4975 29.0625 -3.4425 29.0625 -9.5625 29.0625 C-10.5525 32.3625 -11.5425 35.6625 -12.5625 39.0625 C-14.5425 39.0625 -16.5225 39.0625 -18.5625 39.0625 C-16.4402766 31.30700521 -13.65693256 23.86927476 -10.69140625 16.40014648 C-9.92712088 14.47384045 -9.17020136 12.54475088 -8.4140625 10.61523438 C-4.25373788 0.07462698 -4.25373788 0.07462698 0 0 Z " fill="#EBECED" transform="translate(677.5625,1343.9375)"/>
<path d="M0 0 C4.05682348 2.24328586 6.15257008 4.1817818 7.6875 8.625 C9.48857032 17.07139873 9.75430011 24.88814301 5 32.34375 C2.07418421 35.94006524 -1.09053029 37.71767676 -5.5 39.1875 C-12.6437359 39.88139791 -17.7375638 39.6293779 -23.5 35.1875 C-26.5 31.12298387 -26.5 31.12298387 -26.5 28.1875 C-27.16 28.1875 -27.82 28.1875 -28.5 28.1875 C-28.60852923 25.31147545 -28.6875515 22.43959168 -28.75 19.5625 C-28.78351562 18.75425781 -28.81703125 17.94601562 -28.8515625 17.11328125 C-28.94116007 11.60303041 -28.17053616 8.5565583 -24.5 4.1875 C-17.90199818 -2.60408623 -8.61844886 -4.18930167 0 0 Z M-20.5 7.1875 C-22.87056607 10.72312243 -22.76784981 13.94368103 -22.75 18.125 C-22.75515625 19.33027344 -22.7603125 20.53554687 -22.765625 21.77734375 C-22.50761712 25.08970964 -22.0647439 27.2749074 -20.5 30.1875 C-15.74299752 33.63865866 -12.50369028 34.96575615 -6.5 34.1875 C-1.92080195 32.2706264 0.38545696 29.65153531 2.5 25.1875 C3.1594256 19.17940009 3.21241747 13.68690311 0.5 8.1875 C-2.85121713 4.50933486 -4.97870016 2.86209342 -10 2.625 C-14.42315575 2.88606316 -17.13396378 4.231956 -20.5 7.1875 Z " fill="#EDEEEF" transform="translate(820.5,1344.8125)"/>
<path d="M0 0 C14.92857143 0 14.92857143 0 19 3 C22.46302034 6.52143273 22.43268655 9.55192455 22.4375 14.375 C22.46650391 16.30472656 22.46650391 16.30472656 22.49609375 18.2734375 C21.91931234 22.60611047 20.84328 24.70471139 18 28 C13 30 13 30 0 30 C0 20.1 0 10.2 0 0 Z " fill="#1D2732" transform="translate(757,1348)"/>
<path d="M0 0 C11.55 0 23.1 0 35 0 C35 1.98 35 3.96 35 6 C30.00067249 6.0861953 26.02377899 5.8372965 21 5 C21 20.18 21 35.36 21 51 C18.69 51 16.38 51 14 51 C14 36.15 14 21.3 14 6 C9.38 6 4.76 6 0 6 C0 4.02 0 2.04 0 0 Z " fill="#E4E5E7" transform="translate(636,1408)"/>
<path d="M0 0 C8.25 0 16.5 0 25 0 C25 1.65 25 3.3 25 5 C18.73 5 12.46 5 6 5 C6 8.96 6 12.92 6 17 C10.95 17 15.9 17 21 17 C21 18.65 21 20.3 21 22 C16.05 22 11.1 22 6 22 C6 25.96 6 29.92 6 34 C12.27 34 18.54 34 25 34 C25 35.65 25 37.3 25 39 C16.75 39 8.5 39 0 39 C0 26.13 0 13.26 0 0 Z " fill="#EAEBEC" transform="translate(773,1420)"/>
<path d="M0 0 C8.25 0 16.5 0 25 0 C25 1.65 25 3.3 25 5 C18.73 5 12.46 5 6 5 C6 8.96 6 12.92 6 17 C10.95 17 15.9 17 21 17 C21 18.65 21 20.3 21 22 C16.05 22 11.1 22 6 22 C6 25.96 6 29.92 6 34 C12.27 34 18.54 34 25 34 C25 35.65 25 37.3 25 39 C16.75 39 8.5 39 0 39 C0 26.13 0 13.26 0 0 Z " fill="#EBECED" transform="translate(739,1420)"/>
<path d="M0 0 C2.33984375 1.01953125 2.33984375 1.01953125 4 2 C4 3.98 4 5.96 4 8 C-0.75 7.125 -0.75 7.125 -3 6 C-7.65275976 5.6947378 -7.65275976 5.6947378 -12 7 C-12.50169415 9.83073436 -12.50169415 9.83073436 -12 13 C-9.14764918 15.37695901 -6.26280127 16.87128101 -2.9375 18.5 C2.61649485 21.33608247 2.61649485 21.33608247 5 24 C5.86508831 27.19229771 5.88814446 29.81150624 5 33 C2.24974118 36.51624603 -0.78680664 38.59560221 -5 40 C-6.8096818 40.11880354 -8.62396447 40.1751965 -10.4375 40.1875 C-11.85869141 40.20876953 -11.85869141 40.20876953 -13.30859375 40.23046875 C-16.04501644 39.99614518 -17.66428123 39.39701383 -20 38 C-20 35.69 -20 33.38 -20 31 C-19.236875 31.309375 -18.47375 31.61875 -17.6875 31.9375 C-13.19633503 33.71307685 -9.849659 34.25980316 -5 34 C-4.01 33.34 -3.02 32.68 -2 32 C-1.74969023 29.41619823 -1.74969023 29.41619823 -2 27 C-2.97582031 26.46890625 -3.95164062 25.9378125 -4.95703125 25.390625 C-6.24244561 24.67754842 -7.52758768 23.96398083 -8.8125 23.25 C-9.45509766 22.90195313 -10.09769531 22.55390625 -10.75976562 22.1953125 C-14.27513068 20.22816522 -17.02976027 18.57508954 -19 15 C-19.41259969 11.21783621 -19.32517815 8.75304414 -17.8125 5.25 C-12.99179656 -0.73432151 -7.27820278 -0.8352036 0 0 Z " fill="#E9EAEB" transform="translate(858,1419)"/>
<path d="M0 0 C9.57 0 19.14 0 29 0 C29 1.65 29 3.3 29 5 C25.37 5 21.74 5 18 5 C18 16.22 18 27.44 18 39 C16.02 39 14.04 39 12 39 C12 27.78 12 16.56 12 5 C6.06 5.495 6.06 5.495 0 6 C0 4.02 0 2.04 0 0 Z " fill="#ECEDEE" transform="translate(803,1420)"/>
<path d="M0 0 C11.71428571 0 11.71428571 0 16 3 C18.36939654 6.74157231 18.19368984 9.54107035 17.6171875 13.80859375 C16.6644595 17.19138116 14.71321026 18.88237248 12 21 C10 22 10 22 0 22 C0 14.74 0 7.48 0 0 Z " fill="#1F2834" transform="translate(628,1337)"/>
<path d="M0 0 C2 1 2 1 3.03515625 3.80078125 C3.54369141 5.53908203 3.54369141 5.53908203 4.0625 7.3125 C4.40410156 8.46363281 4.74570312 9.61476563 5.09765625 10.80078125 C5.77144922 13.18968359 6.39800081 15.59200325 7 18 C2.71 18 -1.58 18 -6 18 C-5.19950264 13.19701584 -4.32420375 9.97893173 -2.4375 5.625 C-1.98246094 4.56539062 -1.52742187 3.50578125 -1.05859375 2.4140625 C-0.70925781 1.61742187 -0.35992188 0.82078125 0 0 Z " fill="#252F3A" transform="translate(677,1350)"/>
<path d="M0 0 C0.66 1.32 1.32 2.64 2 4 C1.01 4.66 0.02 5.32 -1 6 C-2.19232613 8.05003955 -2.19232613 8.05003955 -3 10 C-3.33 9.34 -3.66 8.68 -4 8 C-1.48571429 1.48571429 -1.48571429 1.48571429 0 0 Z " fill="#485059" transform="translate(702,1439)"/>
</svg>
