<?xml version="1.0" encoding="UTF-8"?>
<svg version="1.1" xmlns="http://www.w3.org/2000/svg" width="1280" height="1280">
<path d="M0 0 C422.4 0 844.8 0 1280 0 C1280 422.4 1280 844.8 1280 1280 C857.6 1280 435.2 1280 0 1280 C0 857.6 0 435.2 0 0 Z " fill="#1F2D3A" transform="translate(0,0)"/>
<path d="M0 0 C33.33 0 66.66 0 101 0 C99.87619395 16.85709071 99.87619395 16.85709071 99.07275391 22.8828125 C98.98712 23.53702179 98.90148609 24.19123108 98.81325722 24.86526489 C98.63460629 26.22914121 98.45415365 27.59278278 98.27185822 28.95617676 C97.90862994 31.68691782 97.56098104 34.41955486 97.21306992 37.15228271 C96.75758737 40.72697931 96.29621293 44.30091797 95.8359375 47.875 C95.65923524 49.24869459 95.48255887 50.62239252 95.3059082 51.99609375 C94.6625832 56.99743586 94.01876394 61.99871437 93.375 67 C91.93125 78.22 90.4875 89.44 89 101 C121.67 101 154.34 101 188 101 C188 112.84974662 187.68060399 123.45511576 186 135 C185.67929606 137.51134572 185.36407688 140.02339816 185.05444336 142.53613281 C184.29119747 148.60748824 183.52559934 154.67854436 182.75833797 160.74939346 C182.29873981 164.38631077 181.84010598 168.02334461 181.38354492 171.66064453 C180.93597774 175.2260477 180.48604938 178.79114556 180.03445625 182.35604095 C179.7819159 184.35444464 179.53179707 186.35315386 179.28172302 188.35186768 C179.12808792 189.56122986 178.97445282 190.77059204 178.81616211 192.01660156 C178.68229599 193.07864807 178.54842987 194.14069458 178.4105072 195.23492432 C178 198 178 198 177 202 C143.67 202 110.34 202 76 202 C75.34 210.25 74.68 218.5 74 227 C73.34756028 232.59567913 72.68973581 238.17374209 71.93658066 243.75411987 C71.60192459 246.23829774 71.27655876 248.72356173 70.95315552 251.20922852 C70.03518529 258.25390576 69.1027215 265.29662591 68.16259766 272.33837891 C67.58041597 276.70379146 67.00910508 281.07052458 66.44394302 285.43817139 C66.23041731 287.07141362 66.01288323 288.70413815 65.7908287 290.33624268 C63.6554274 306.0365471 62.94071193 321.35056485 66 337 C66.15984375 337.82242187 66.3196875 338.64484375 66.484375 339.4921875 C70.59511573 355.99070098 82.19077391 373.13615933 95 384 C95.99 384.33 96.98 384.66 98 385 C98 385.66 98 386.32 98 387 C99.32 387.33 100.64 387.66 102 388 C102 388.66 102 389.32 102 390 C102.9590625 390.37125 102.9590625 390.37125 103.9375 390.75 C106.42447689 391.76509261 108.86526453 392.83243346 111.3125 393.9375 C125.73506539 400.34225766 139.76824628 402.98819784 155.5078125 403.31640625 C156.78505692 403.3475779 156.78505692 403.3475779 158.08810425 403.37937927 C160.76699983 403.44395751 163.44598017 403.50332583 166.125 403.5625 C167.95834156 403.60577282 169.79167503 403.64938965 171.625 403.69335938 C176.08324993 403.79954249 180.54158372 403.90105841 185 404 C185.38068514 413.49245444 184.34294462 422.62159126 183.09118652 432.00302124 C182.50318754 436.41401293 181.94128868 440.82836588 181.375 445.2421875 C181.20142975 446.5867527 181.20142975 446.5867527 181.02435303 447.95848083 C179.95286846 456.28424991 178.95843384 464.61792089 178.00500488 472.95797729 C177.83775137 474.42028463 177.66941313 475.88246838 177.49987793 477.34451294 C177.26287561 479.38953588 177.02932259 481.43492361 176.796875 483.48046875 C176.66635742 484.62410889 176.53583984 485.76774902 176.40136719 486.94604492 C175.80197244 492.61855979 175.42059977 498.31204425 175 504 C167.55179925 504.10298424 160.10378752 504.17211545 152.6550293 504.21972656 C150.13087099 504.23961319 147.6067573 504.26673218 145.08276367 504.30175781 C129.91788106 504.50664794 115.7483621 503.90810457 100.95396423 500.43630981 C98.46478866 499.88049016 95.96590955 499.51459556 93.4375 499.1875 C75.44975074 495.96409533 58.57153607 487.18912869 43 478 C42.03835938 477.46632813 41.07671875 476.93265625 40.0859375 476.3828125 C39.39757812 475.92648437 38.70921875 475.47015625 38 475 C38 474.34 38 473.68 38 473 C36.72382812 472.67515625 36.72382812 472.67515625 35.421875 472.34375 C31.25557683 470.70766944 28.55588094 468.45350544 25.25 465.5 C24.64019287 464.96536133 24.03038574 464.43072266 23.40209961 463.87988281 C18.04491003 459.13825999 12.91969054 454.1954779 8 449 C7.40058594 448.3709375 6.80117188 447.741875 6.18359375 447.09375 C-10.46858724 428.85748683 -21.7886909 407.06947145 -30 384 C-30.25547607 383.29117676 -30.51095215 382.58235352 -30.77416992 381.85205078 C-32.69412035 376.34630171 -33.98077223 370.84969922 -35.0625 365.125 C-35.22298828 364.30386719 -35.38347656 363.48273438 -35.54882812 362.63671875 C-35.87521569 360.95628154 -36.19569907 359.27468764 -36.51049805 357.59204102 C-36.84235971 355.83474662 -37.18803175 354.08001453 -37.54614258 352.32788086 C-42.94851997 325.00323755 -36.96823426 296.36250921 -33.33587646 269.18153381 C-31.97668746 258.96887895 -30.78538621 248.74369565 -29.6875 238.5 C-28.55874713 227.98510419 -27.3442394 217.48919113 -26 207 C-25.8558667 205.87513184 -25.7117334 204.75026367 -25.56323242 203.59130859 C-25.12747479 200.20644601 -24.68889106 196.82195764 -24.25 193.4375 C-23.80798977 190.01412542 -23.36633902 186.59070478 -22.92481995 183.16726685 C-22.37690807 178.91951826 -21.82827741 174.67186389 -21.27880859 170.42431641 C-20.62617141 165.37733778 -19.97630178 160.3300075 -19.32775879 155.28250122 C-19.07346867 153.30654292 -18.8183813 151.33068701 -18.56237793 149.35494995 C-17.15867712 138.51747181 -15.83987471 127.67715409 -14.6640625 116.8125 C-12.6250068 98.07565996 -10.19095209 79.38645935 -7.81140137 60.69049072 C-7.31011907 56.74823197 -6.81076904 52.80572954 -6.31149197 48.8632164 C-5.7070717 44.09101218 -5.10166263 39.31893358 -4.49609375 34.546875 C-4.38416624 33.66440849 -4.27223873 32.78194199 -4.15691948 31.87273407 C-3.8348786 29.33533584 -3.51215124 26.79802584 -3.18920898 24.26074219 C-3.05277733 23.18499184 -3.05277733 23.18499184 -2.91358948 22.08750916 C-1.97447939 14.72043844 -0.9816007 7.36200521 0 0 Z " fill="#FDFDFE" transform="translate(712,389)"/>
<path d="M0 0 C32.67 0 65.34 0 99 0 C99 8.18915855 98.74269532 15.62162892 97.5625 23.625 C97.36043945 25.09259766 97.36043945 25.09259766 97.15429688 26.58984375 C96.14481781 33.71036438 96.14481781 33.71036438 95 36 C97.97 35.505 97.97 35.505 101 35 C101 34.34 101 33.68 101 33 C101.73863281 32.78085937 102.47726562 32.56171875 103.23828125 32.3359375 C108.56895624 30.66967823 113.42876637 28.90240474 118.25 26.0625 C124.00407822 22.76015946 129.93161601 20.94403092 136.26171875 19.09765625 C139.2017111 18.23439831 142.05960073 17.29330149 144.9375 16.25 C148.53479514 15.021153 151.97369107 14.5440079 155.76171875 14.30859375 C158.11718931 14.06157079 158.11718931 14.06157079 160.69140625 13.0390625 C164.86237768 11.72917065 168.91140936 11.33986929 173.25 10.9375 C178.79392493 10.62471765 178.79392493 10.62471765 184 9 C186.30787874 8.90785369 188.6185085 8.88250603 190.92822266 8.88647461 C191.99667671 8.88625557 191.99667671 8.88625557 193.0867157 8.8860321 C195.44586206 8.88672989 197.80492989 8.89451603 200.1640625 8.90234375 C201.79788164 8.9042084 203.43170134 8.90563208 205.06552124 8.90663147 C209.3694818 8.91045291 213.67340871 8.92028002 217.97735596 8.93133545 C222.36771184 8.94155758 226.75807315 8.94613081 231.1484375 8.95117188 C239.76564046 8.96190261 248.38281604 8.97897457 257 9 C256.35184148 16.54771349 255.56193204 24.06845074 254.66015625 31.58984375 C254.53313828 32.65562149 254.4061203 33.72139923 254.2752533 34.81947327 C254.00796294 37.05739893 253.7398503 39.29522652 253.47094727 41.53295898 C253.06404796 44.92459722 252.66178286 48.31676444 252.25976562 51.70898438 C251.99767857 53.89847136 251.7353178 56.08792561 251.47265625 58.27734375 C251.3548732 59.27458969 251.23709015 60.27183563 251.11573792 61.29930115 C250.38379798 67.34704759 249.48202784 73.34492472 248.44065857 79.34729004 C247.71132121 83.73781053 247.25257636 88.15133124 246.7890625 92.57617188 C246.33640101 96.67744105 245.71403426 100.71463574 244.96484375 104.77319336 C244.78429443 105.75468857 244.60374512 106.73618378 244.41772461 107.74742126 C244.27987549 108.49077225 244.14202637 109.23412323 244 110 C242.78542366 110.00546844 242.78542366 110.00546844 241.54631042 110.01104736 C233.8259969 110.04929032 226.10614682 110.10654221 218.38613415 110.18390274 C214.41943663 110.22301511 210.45294909 110.25537729 206.48608398 110.27099609 C176.63270995 110.39717724 148.39235055 113.00881943 123.66796875 131.76953125 C122 133 122 133 120 133 C120 133.66 120 134.32 120 135 C118.50485526 136.28535171 116.95179881 137.50373806 115.375 138.6875 C112.05685388 141.25835825 109.1602286 143.75081531 106.5 147 C105.675 147.99 104.85 148.98 104 150 C103.34 150 102.68 150 102 150 C101.75765625 150.54527344 101.5153125 151.09054687 101.265625 151.65234375 C99.70493069 154.54733535 97.77753554 156.97290955 95.75 159.5625 C88.9947223 168.40717872 84.52197863 177.48144498 81 188 C80.72285156 188.71414063 80.44570313 189.42828125 80.16015625 190.1640625 C78.54130947 194.46487931 77.69642042 198.62654029 77.1171875 203.18359375 C76.99407196 204.14128914 76.99407196 204.14128914 76.86846924 205.11833191 C76.57501296 207.41173348 76.28759192 209.70585589 76 212 C75.76045127 213.88788313 75.52069232 215.77573959 75.28076172 217.66357422 C74.42959578 224.37893773 73.58897169 231.09560352 72.75 237.8125 C72.59826324 239.02633362 72.44652649 240.24016724 72.29019165 241.49078369 C70.04722218 259.44715275 67.84379213 277.40801701 65.6875 295.375 C65.50338562 296.90672348 65.50338562 296.90672348 65.31555176 298.46939087 C63.82372705 310.8485022 63.82372705 310.8485022 62.42651367 323.23852539 C62.29204582 324.47664474 62.29204582 324.47664474 62.15486145 325.73977661 C61.98974409 327.27316227 61.8271028 328.80681762 61.66752625 330.34078979 C61.29067784 333.8563918 60.81522307 337.260744 59.9375 340.6875 C59.03245977 344.32158463 58.76887312 347.82301901 58.5625 351.5625 C58.13307314 359.22316853 57.21464363 366.77835782 56.19165039 374.38110352 C54.84666445 384.58006976 53.97837262 394.72708751 53 405 C19.34 405 -14.32 405 -49 405 C-49 398.65293064 -48.71726567 393.09652152 -47.6875 386.9375 C-45.08132517 370.41301028 -43.08139797 353.85718364 -41.69897461 337.18603516 C-41.20887847 331.30181518 -40.66719187 325.42945863 -40 319.5625 C-39.7834375 317.64630859 -39.7834375 317.64630859 -39.5625 315.69140625 C-39.15524173 313.01877385 -38.6665611 310.61642448 -37.96875 308.02734375 C-36.91479393 304.00620859 -36.63752828 300.14202812 -36.5 296 C-36.34074552 291.20362992 -35.78354607 287.00241471 -34.52587891 282.33984375 C-33.35720138 277.13993408 -32.97506404 271.79489957 -32.4375 266.5 C-32.30746582 265.25927734 -32.17743164 264.01855469 -32.04345703 262.74023438 C-31.22984367 254.80102632 -30.57487962 246.87831543 -30.2109375 238.90625 C-30 236 -30 236 -29.51806641 234.08447266 C-28.98943571 231.95749393 -28.71839552 229.92175532 -28.5 227.7421875 C-28.4175 226.95199219 -28.335 226.16179687 -28.25 225.34765625 C-28.08255142 223.69148512 -27.91589198 222.03523402 -27.75 220.37890625 C-27.62625 219.19748047 -27.62625 219.19748047 -27.5 217.9921875 C-27.4278125 217.27401855 -27.355625 216.55584961 -27.28125 215.81591797 C-27 214 -27 214 -26 212 C-25.83914124 209.33093618 -25.72136277 206.67142105 -25.625 204 C-25.33932242 197.73754832 -24.74770781 191.66708653 -23.625 185.5 C-22.27323113 178.06775916 -21.32659244 170.63348694 -20.5 163.125 C-19.65869791 155.48801717 -18.72669395 147.89707842 -17.5 140.3125 C-15.90102102 130.36780845 -15.01448227 120.35622031 -14.17773438 110.32348633 C-13.63834718 104.21792293 -12.92498585 98.29401872 -11.62890625 92.30078125 C-9.36468291 81.56355167 -8.20269117 70.66590228 -6.89282227 59.77880859 C-6.44174098 56.03519674 -5.98036848 52.29296161 -5.51757812 48.55078125 C-3.9897172 36.0673939 -2.59687013 23.59364848 -1.62388611 11.0534668 C-1.55472488 10.17859619 -1.48556366 9.30372559 -1.41430664 8.40234375 C-1.35763321 7.64429443 -1.30095978 6.88624512 -1.24256897 6.10522461 C-1 4 -1 4 0 0 Z " fill="#FDFDFD" transform="translate(432,488)"/>
<path d="M0 0 C0.99 0.33 1.98 0.66 3 1 C2.67 1.66 2.34 2.32 2 3 C1.01 3 0.02 3 -1 3 C-1 3.66 -1 4.32 -1 5 C-4.1999003 8.01704885 -6.61537866 9.49890042 -11 10 C-6.375 5.125 -6.375 5.125 -3 4 C-3 3.34 -3 2.68 -3 2 C-2.01 1.34 -1.02 0.68 0 0 Z " fill="#4E565E" transform="translate(555,619)"/>
<path d="M0 0 C1.60031344 3.20062687 0.03173691 5.72271806 -1 9 C-2.32 9.33 -3.64 9.66 -5 10 C-5.33 11.32 -5.66 12.64 -6 14 C-6.33 13.34 -6.66 12.68 -7 12 C-5.8203125 9.43359375 -5.8203125 9.43359375 -4.125 6.4375 C-3.57070313 5.44621094 -3.01640625 4.45492187 -2.4453125 3.43359375 C-1 1 -1 1 0 0 Z " fill="#626B74" transform="translate(523,653)"/>
<path d="M0 0 C-1.60149886 0.67305018 -3.20631029 1.33822227 -4.8125 2 C-6.15248047 2.556875 -6.15248047 2.556875 -7.51953125 3.125 C-10 4 -10 4 -13 4 C-13 4.66 -13 5.32 -13 6 C-15 5 -15 5 -16 3 C-3.05882353 -1.52941176 -3.05882353 -1.52941176 0 0 Z " fill="#636B74" transform="translate(546,517)"/>
<path d="M0 0 C0.66 0 1.32 0 2 0 C1.67 5.28 1.34 10.56 1 16 C0.67 16 0.34 16 0 16 C-0.19389096 13.5211787 -0.38040123 11.04219069 -0.5625 8.5625 C-0.61857422 7.85544922 -0.67464844 7.14839844 -0.73242188 6.41992188 C-0.86190993 4.61572163 -0.93521608 2.80768048 -1 1 C-0.67 0.67 -0.34 0.34 0 0 Z " fill="#656D76" transform="translate(388,832)"/>
<path d="M0 0 C1.42944945 2.35438733 2.08661261 3.48032433 1.625 6.25 C1.41875 6.8275 1.2125 7.405 1 8 C0.34 8 -0.32 8 -1 8 C-1.33 8.66 -1.66 9.32 -2 10 C-2.25 3.375 -2.25 3.375 0 0 Z " fill="#364149" transform="translate(893,842)"/>
<path d="M0 0 C2.79872437 2.52788007 4.45773019 4.20411134 5 8 C3.68 8 2.36 8 1 8 C0 2.25 0 2.25 0 0 Z " fill="#48535C" transform="translate(699,810)"/>
<path d="M0 0 C2.18975773 3.28463659 2.99806563 6.20696275 4 10 C2.68 9.67 1.36 9.34 0 9 C0 6.03 0 3.06 0 0 Z " fill="#575F67" transform="translate(682,773)"/>
</svg>
